<mxfile host="app.diagrams.net" agent="Mozilla/5.0 (Windows NT 10.0; Win64; x64) AppleWebKit/537.36 (KHTML, like Gecko) Chrome/130.0.0.0 Safari/537.36" version="24.8.1">
  <diagram id="C5RBs43oDa-KdzZeNtuy" name="Page-1">
    <mxGraphModel dx="419" dy="203" grid="1" gridSize="10" guides="1" tooltips="1" connect="1" arrows="1" fold="1" page="1" pageScale="1" pageWidth="827" pageHeight="1169" math="0" shadow="0">
      <root>
        <mxCell id="WIyWlLk6GJQsqaUBKTNV-0" />
        <mxCell id="WIyWlLk6GJQsqaUBKTNV-1" parent="WIyWlLk6GJQsqaUBKTNV-0" />
        <mxCell id="JUwZL32isL9A7xfii7kj-1" value="Proprietário&amp;nbsp;" style="whiteSpace=wrap;html=1;align=center;" vertex="1" parent="WIyWlLk6GJQsqaUBKTNV-1">
          <mxGeometry x="70" y="370" width="140" height="30" as="geometry" />
        </mxCell>
        <mxCell id="JUwZL32isL9A7xfii7kj-2" value="Possui&amp;nbsp;" style="shape=rhombus;perimeter=rhombusPerimeter;whiteSpace=wrap;html=1;align=center;" vertex="1" parent="WIyWlLk6GJQsqaUBKTNV-1">
          <mxGeometry x="280" y="355" width="120" height="60" as="geometry" />
        </mxCell>
        <mxCell id="JUwZL32isL9A7xfii7kj-3" value="" style="endArrow=none;html=1;rounded=0;entryX=0;entryY=0.5;entryDx=0;entryDy=0;" edge="1" parent="WIyWlLk6GJQsqaUBKTNV-1" target="JUwZL32isL9A7xfii7kj-2">
          <mxGeometry relative="1" as="geometry">
            <mxPoint x="210" y="384.5" as="sourcePoint" />
            <mxPoint x="370" y="384.5" as="targetPoint" />
          </mxGeometry>
        </mxCell>
        <mxCell id="JUwZL32isL9A7xfii7kj-5" value="(1, 1)" style="edgeLabel;html=1;align=center;verticalAlign=middle;resizable=0;points=[];" vertex="1" connectable="0" parent="JUwZL32isL9A7xfii7kj-3">
          <mxGeometry x="0.0858" relative="1" as="geometry">
            <mxPoint as="offset" />
          </mxGeometry>
        </mxCell>
        <mxCell id="JUwZL32isL9A7xfii7kj-6" value="Imóvel" style="whiteSpace=wrap;html=1;align=center;" vertex="1" parent="WIyWlLk6GJQsqaUBKTNV-1">
          <mxGeometry x="470" y="370" width="140" height="30" as="geometry" />
        </mxCell>
        <mxCell id="JUwZL32isL9A7xfii7kj-7" value="" style="endArrow=none;html=1;rounded=0;entryX=0;entryY=0.5;entryDx=0;entryDy=0;exitX=1;exitY=0.5;exitDx=0;exitDy=0;" edge="1" parent="WIyWlLk6GJQsqaUBKTNV-1" source="JUwZL32isL9A7xfii7kj-2" target="JUwZL32isL9A7xfii7kj-6">
          <mxGeometry relative="1" as="geometry">
            <mxPoint x="330" y="400" as="sourcePoint" />
            <mxPoint x="490" y="400" as="targetPoint" />
          </mxGeometry>
        </mxCell>
        <mxCell id="JUwZL32isL9A7xfii7kj-9" value="(1, N)" style="edgeLabel;html=1;align=center;verticalAlign=middle;resizable=0;points=[];" vertex="1" connectable="0" parent="JUwZL32isL9A7xfii7kj-7">
          <mxGeometry x="-0.44" relative="1" as="geometry">
            <mxPoint x="16" as="offset" />
          </mxGeometry>
        </mxCell>
        <mxCell id="JUwZL32isL9A7xfii7kj-31" value="" style="edgeStyle=orthogonalEdgeStyle;rounded=0;orthogonalLoop=1;jettySize=auto;html=1;" edge="1" parent="WIyWlLk6GJQsqaUBKTNV-1" source="JUwZL32isL9A7xfii7kj-10" target="JUwZL32isL9A7xfii7kj-6">
          <mxGeometry relative="1" as="geometry" />
        </mxCell>
        <mxCell id="JUwZL32isL9A7xfii7kj-10" value="Aluga" style="shape=rhombus;perimeter=rhombusPerimeter;whiteSpace=wrap;html=1;align=center;" vertex="1" parent="WIyWlLk6GJQsqaUBKTNV-1">
          <mxGeometry x="480" y="270" width="120" height="60" as="geometry" />
        </mxCell>
        <mxCell id="JUwZL32isL9A7xfii7kj-11" value="" style="endArrow=none;html=1;rounded=0;exitX=0.5;exitY=1;exitDx=0;exitDy=0;entryX=0.5;entryY=0;entryDx=0;entryDy=0;" edge="1" parent="WIyWlLk6GJQsqaUBKTNV-1" source="JUwZL32isL9A7xfii7kj-10" target="JUwZL32isL9A7xfii7kj-6">
          <mxGeometry relative="1" as="geometry">
            <mxPoint x="330" y="400" as="sourcePoint" />
            <mxPoint x="490" y="400" as="targetPoint" />
          </mxGeometry>
        </mxCell>
        <mxCell id="JUwZL32isL9A7xfii7kj-12" value="(1, 1)" style="edgeLabel;html=1;align=center;verticalAlign=middle;resizable=0;points=[];" vertex="1" connectable="0" parent="JUwZL32isL9A7xfii7kj-11">
          <mxGeometry x="-0.15" y="1" relative="1" as="geometry">
            <mxPoint as="offset" />
          </mxGeometry>
        </mxCell>
        <mxCell id="JUwZL32isL9A7xfii7kj-13" value="Inquilino" style="whiteSpace=wrap;html=1;align=center;" vertex="1" parent="WIyWlLk6GJQsqaUBKTNV-1">
          <mxGeometry x="470" y="200" width="140" height="30" as="geometry" />
        </mxCell>
        <mxCell id="JUwZL32isL9A7xfii7kj-16" value="" style="endArrow=none;html=1;rounded=0;exitX=0.5;exitY=1;exitDx=0;exitDy=0;entryX=0.5;entryY=0;entryDx=0;entryDy=0;" edge="1" parent="WIyWlLk6GJQsqaUBKTNV-1">
          <mxGeometry relative="1" as="geometry">
            <mxPoint x="541" y="230" as="sourcePoint" />
            <mxPoint x="541" y="270" as="targetPoint" />
            <Array as="points" />
          </mxGeometry>
        </mxCell>
        <mxCell id="JUwZL32isL9A7xfii7kj-17" value="(0,1)" style="edgeLabel;html=1;align=center;verticalAlign=middle;resizable=0;points=[];" vertex="1" connectable="0" parent="JUwZL32isL9A7xfii7kj-16">
          <mxGeometry x="-0.15" y="1" relative="1" as="geometry">
            <mxPoint as="offset" />
          </mxGeometry>
        </mxCell>
        <mxCell id="JUwZL32isL9A7xfii7kj-18" value="Corretor" style="whiteSpace=wrap;html=1;align=center;" vertex="1" parent="WIyWlLk6GJQsqaUBKTNV-1">
          <mxGeometry x="470" y="553" width="140" height="30" as="geometry" />
        </mxCell>
        <mxCell id="JUwZL32isL9A7xfii7kj-19" value="Oferece" style="shape=rhombus;perimeter=rhombusPerimeter;whiteSpace=wrap;html=1;align=center;" vertex="1" parent="WIyWlLk6GJQsqaUBKTNV-1">
          <mxGeometry x="480" y="453" width="120" height="60" as="geometry" />
        </mxCell>
        <mxCell id="JUwZL32isL9A7xfii7kj-20" value="" style="endArrow=none;html=1;rounded=0;exitX=0.5;exitY=1;exitDx=0;exitDy=0;entryX=0.5;entryY=0;entryDx=0;entryDy=0;" edge="1" parent="WIyWlLk6GJQsqaUBKTNV-1" source="JUwZL32isL9A7xfii7kj-19" target="JUwZL32isL9A7xfii7kj-18">
          <mxGeometry relative="1" as="geometry">
            <mxPoint x="330" y="583" as="sourcePoint" />
            <mxPoint x="490" y="583" as="targetPoint" />
          </mxGeometry>
        </mxCell>
        <mxCell id="JUwZL32isL9A7xfii7kj-21" value="(0, N)" style="edgeLabel;html=1;align=center;verticalAlign=middle;resizable=0;points=[];" vertex="1" connectable="0" parent="JUwZL32isL9A7xfii7kj-20">
          <mxGeometry x="-0.15" y="1" relative="1" as="geometry">
            <mxPoint as="offset" />
          </mxGeometry>
        </mxCell>
        <mxCell id="JUwZL32isL9A7xfii7kj-23" value="" style="endArrow=none;html=1;rounded=0;exitX=0.5;exitY=1;exitDx=0;exitDy=0;entryX=0.5;entryY=0;entryDx=0;entryDy=0;" edge="1" parent="WIyWlLk6GJQsqaUBKTNV-1">
          <mxGeometry relative="1" as="geometry">
            <mxPoint x="540" y="400" as="sourcePoint" />
            <mxPoint x="540" y="452.9999999999999" as="targetPoint" />
          </mxGeometry>
        </mxCell>
        <mxCell id="JUwZL32isL9A7xfii7kj-27" value="(0, N)" style="edgeLabel;html=1;align=center;verticalAlign=middle;resizable=0;points=[];" vertex="1" connectable="0" parent="JUwZL32isL9A7xfii7kj-23">
          <mxGeometry x="-0.0566" y="3" relative="1" as="geometry">
            <mxPoint as="offset" />
          </mxGeometry>
        </mxCell>
      </root>
    </mxGraphModel>
  </diagram>
</mxfile>
